{
	"asset":{
		"generator":"Khronos glTF Blender I/O v3.5.30",
		"version":"2.0"
	},
	"scene":0,
	"scenes":[
		{
			"name":"Scene",
			"nodes":[
				9
			]
		}
	],
	"nodes":[
		{
			"name":"Tail_end",
			"rotation":[
				-1.862645149230957e-08,
				5.0121521516510725e-12,
				-8.556946262672227e-10,
				1
			],
			"translation":[
				-3.9348202474087657e-10,
				1.3604799509048462,
				1.8627266840098855e-08
			]
		},
		{
			"children":[
				0
			],
			"name":"Tail",
			"rotation":[
				-0.05485543981194496,
				5.655341750454568e-10,
				1.2534625781768227e-08,
				0.9984943270683289
			],
			"scale":[
				1,
				1.0000001192092896,
				1.0000001192092896
			],
			"translation":[
				-2.6162440269761333e-12,
				1.583986759185791,
				4.563467825846601e-08
			]
		},
		{
			"children":[
				1
			],
			"name":"Spine3",
			"rotation":[
				0.005159932188689709,
				-8.34153252071701e-06,
				-0.0030181652400642633,
				0.9999821782112122
			],
			"translation":[
				-8.003553375601768e-10,
				1.6590007543563843,
				-1.3207390736624802e-08
			]
		},
		{
			"children":[
				2
			],
			"name":"Spine2",
			"rotation":[
				0.007264910731464624,
				-2.9158802135498263e-05,
				0.003018035553395748,
				0.9999690651893616
			],
			"scale":[
				0.9999999403953552,
				0.9999999403953552,
				1
			],
			"translation":[
				0,
				1.561596393585205,
				-5.820766091346741e-09
			]
		},
		{
			"children":[
				3
			],
			"name":"Spine1",
			"rotation":[
				-0.6807580590248108,
				0,
				0,
				0.7325083613395691
			],
			"translation":[
				0.0024281740188598633,
				0.4141339063644409,
				1.5354440212249756
			]
		},
		{
			"name":"Face_end",
			"rotation":[
				2.9802322387695312e-08,
				-3.815614491031738e-11,
				1.0966626370033372e-13,
				1
			],
			"translation":[
				-2.1185542209423147e-10,
				1.1765989065170288,
				-1.4825679350849441e-08
			]
		},
		{
			"children":[
				5
			],
			"name":"Face",
			"rotation":[
				0.7414854764938354,
				1.0398252925369889e-06,
				1.149107674791594e-06,
				0.6709690093994141
			],
			"scale":[
				1,
				0.9999999403953552,
				0.9999999403953552
			],
			"translation":[
				0.0024281740188598633,
				0.44035637378692627,
				1.8501458168029785
			]
		},
		{
			"children":[
				4,
				6
			],
			"name":"Root",
			"translation":[
				0,
				-0.5,
				0
			]
		},
		{
			"mesh":0,
			"name":"ClownFish",
			"skin":0
		},
		{
			"children":[
				8,
				7
			],
			"name":"Armature"
		}
	],
	"animations":[
		{
			"channels":[
				{
					"sampler":0,
					"target":{
						"node":7,
						"path":"translation"
					}
				},
				{
					"sampler":1,
					"target":{
						"node":7,
						"path":"rotation"
					}
				},
				{
					"sampler":2,
					"target":{
						"node":7,
						"path":"scale"
					}
				},
				{
					"sampler":3,
					"target":{
						"node":4,
						"path":"translation"
					}
				},
				{
					"sampler":4,
					"target":{
						"node":4,
						"path":"rotation"
					}
				},
				{
					"sampler":5,
					"target":{
						"node":4,
						"path":"scale"
					}
				},
				{
					"sampler":6,
					"target":{
						"node":3,
						"path":"translation"
					}
				},
				{
					"sampler":7,
					"target":{
						"node":3,
						"path":"rotation"
					}
				},
				{
					"sampler":8,
					"target":{
						"node":3,
						"path":"scale"
					}
				},
				{
					"sampler":9,
					"target":{
						"node":2,
						"path":"translation"
					}
				},
				{
					"sampler":10,
					"target":{
						"node":2,
						"path":"rotation"
					}
				},
				{
					"sampler":11,
					"target":{
						"node":2,
						"path":"scale"
					}
				},
				{
					"sampler":12,
					"target":{
						"node":1,
						"path":"translation"
					}
				},
				{
					"sampler":13,
					"target":{
						"node":1,
						"path":"rotation"
					}
				},
				{
					"sampler":14,
					"target":{
						"node":1,
						"path":"scale"
					}
				},
				{
					"sampler":15,
					"target":{
						"node":0,
						"path":"translation"
					}
				},
				{
					"sampler":16,
					"target":{
						"node":0,
						"path":"rotation"
					}
				},
				{
					"sampler":17,
					"target":{
						"node":0,
						"path":"scale"
					}
				},
				{
					"sampler":18,
					"target":{
						"node":6,
						"path":"translation"
					}
				},
				{
					"sampler":19,
					"target":{
						"node":6,
						"path":"rotation"
					}
				},
				{
					"sampler":20,
					"target":{
						"node":6,
						"path":"scale"
					}
				},
				{
					"sampler":21,
					"target":{
						"node":5,
						"path":"translation"
					}
				},
				{
					"sampler":22,
					"target":{
						"node":5,
						"path":"rotation"
					}
				},
				{
					"sampler":23,
					"target":{
						"node":5,
						"path":"scale"
					}
				},
				{
					"sampler":24,
					"target":{
						"node":9,
						"path":"translation"
					}
				},
				{
					"sampler":25,
					"target":{
						"node":9,
						"path":"rotation"
					}
				},
				{
					"sampler":26,
					"target":{
						"node":9,
						"path":"scale"
					}
				}
			],
			"name":"Armature|Armature|Swim",
			"samplers":[
				{
					"input":16,
					"interpolation":"LINEAR",
					"output":17
				},
				{
					"input":16,
					"interpolation":"LINEAR",
					"output":18
				},
				{
					"input":16,
					"interpolation":"LINEAR",
					"output":19
				},
				{
					"input":16,
					"interpolation":"LINEAR",
					"output":20
				},
				{
					"input":16,
					"interpolation":"LINEAR",
					"output":21
				},
				{
					"input":16,
					"interpolation":"LINEAR",
					"output":22
				},
				{
					"input":16,
					"interpolation":"LINEAR",
					"output":23
				},
				{
					"input":16,
					"interpolation":"LINEAR",
					"output":24
				},
				{
					"input":16,
					"interpolation":"LINEAR",
					"output":25
				},
				{
					"input":16,
					"interpolation":"LINEAR",
					"output":26
				},
				{
					"input":16,
					"interpolation":"LINEAR",
					"output":27
				},
				{
					"input":16,
					"interpolation":"LINEAR",
					"output":28
				},
				{
					"input":16,
					"interpolation":"LINEAR",
					"output":29
				},
				{
					"input":16,
					"interpolation":"LINEAR",
					"output":30
				},
				{
					"input":16,
					"interpolation":"LINEAR",
					"output":31
				},
				{
					"input":16,
					"interpolation":"LINEAR",
					"output":32
				},
				{
					"input":16,
					"interpolation":"LINEAR",
					"output":33
				},
				{
					"input":16,
					"interpolation":"LINEAR",
					"output":34
				},
				{
					"input":16,
					"interpolation":"LINEAR",
					"output":35
				},
				{
					"input":16,
					"interpolation":"LINEAR",
					"output":36
				},
				{
					"input":16,
					"interpolation":"LINEAR",
					"output":37
				},
				{
					"input":16,
					"interpolation":"LINEAR",
					"output":38
				},
				{
					"input":16,
					"interpolation":"LINEAR",
					"output":39
				},
				{
					"input":16,
					"interpolation":"LINEAR",
					"output":40
				},
				{
					"input":16,
					"interpolation":"LINEAR",
					"output":41
				},
				{
					"input":16,
					"interpolation":"LINEAR",
					"output":42
				},
				{
					"input":16,
					"interpolation":"LINEAR",
					"output":43
				}
			]
		}
	],
	"materials":[
		{
			"doubleSided":true,
			"name":"Body",
			"pbrMetallicRoughness":{
				"baseColorFactor":[
					0.8000000715255737,
					0.1362169086933136,
					0.018566589802503586,
					0
				],
				"metallicFactor":0,
				"roughnessFactor":0.690034806728363
			}
		},
		{
			"doubleSided":true,
			"name":"Stripes",
			"pbrMetallicRoughness":{
				"baseColorFactor":[
					0.8000000715255737,
					0.7579959034919739,
					0.6398285031318665,
					0
				],
				"metallicFactor":0,
				"roughnessFactor":0.690034806728363
			}
		},
		{
			"doubleSided":true,
			"name":"Outline",
			"pbrMetallicRoughness":{
				"baseColorFactor":[
					0.046961650252342224,
					0.046961650252342224,
					0.046961650252342224,
					0
				],
				"metallicFactor":0,
				"roughnessFactor":0.690034806728363
			}
		}
	],
	"meshes":[
		{
			"name":"Cube.001",
			"primitives":[
				{
					"attributes":{
						"POSITION":0,
						"NORMAL":1,
						"JOINTS_0":2,
						"WEIGHTS_0":3
					},
					"indices":4,
					"material":0
				},
				{
					"attributes":{
						"POSITION":5,
						"NORMAL":6,
						"JOINTS_0":7,
						"WEIGHTS_0":8
					},
					"indices":9,
					"material":1
				},
				{
					"attributes":{
						"POSITION":10,
						"NORMAL":11,
						"JOINTS_0":12,
						"WEIGHTS_0":13
					},
					"indices":14,
					"material":2
				}
			]
		}
	],
	"skins":[
		{
			"inverseBindMatrices":15,
			"joints":[
				7,
				4,
				3,
				2,
				1,
				0,
				6,
				5
			],
			"name":"Armature"
		}
	],
	"accessors":[
		{
			"bufferView":0,
			"componentType":5126,
			"count":721,
			"max":[
				0.47430089116096497,
				2.3434877395629883,
				3.124206781387329
			],
			"min":[
				-0.47430089116096497,
				-1.7198880910873413,
				-4.7529191970825195
			],
			"type":"VEC3"
		},
		{
			"bufferView":1,
			"componentType":5126,
			"count":721,
			"type":"VEC3"
		},
		{
			"bufferView":2,
			"componentType":5121,
			"count":721,
			"type":"VEC4"
		},
		{
			"bufferView":3,
			"componentType":5126,
			"count":721,
			"type":"VEC4"
		},
		{
			"bufferView":4,
			"componentType":5123,
			"count":1194,
			"type":"SCALAR"
		},
		{
			"bufferView":5,
			"componentType":5126,
			"count":180,
			"max":[
				0.4802404046058655,
				1.5791561603546143,
				2.1783623695373535
			],
			"min":[
				-0.4802404046058655,
				-1.0693105459213257,
				-3.160724401473999
			],
			"type":"VEC3"
		},
		{
			"bufferView":6,
			"componentType":5126,
			"count":180,
			"type":"VEC3"
		},
		{
			"bufferView":7,
			"componentType":5121,
			"count":180,
			"type":"VEC4"
		},
		{
			"bufferView":8,
			"componentType":5126,
			"count":180,
			"type":"VEC4"
		},
		{
			"bufferView":9,
			"componentType":5123,
			"count":288,
			"type":"SCALAR"
		},
		{
			"bufferView":10,
			"componentType":5126,
			"count":361,
			"max":[
				0.4802404046058655,
				1.5794469118118286,
				2.2521204948425293
			],
			"min":[
				-0.4802404046058655,
				-1.0878658294677734,
				-3.2661120891571045
			],
			"type":"VEC3"
		},
		{
			"bufferView":11,
			"componentType":5126,
			"count":361,
			"type":"VEC3"
		},
		{
			"bufferView":12,
			"componentType":5121,
			"count":361,
			"type":"VEC4"
		},
		{
			"bufferView":13,
			"componentType":5126,
			"count":361,
			"type":"VEC4"
		},
		{
			"bufferView":14,
			"componentType":5123,
			"count":576,
			"type":"SCALAR"
		},
		{
			"bufferView":15,
			"componentType":5126,
			"count":8,
			"type":"MAT4"
		},
		{
			"bufferView":16,
			"componentType":5126,
			"count":32,
			"max":[
				1.3333333333333333
			],
			"min":[
				0.041666666666666664
			],
			"type":"SCALAR"
		},
		{
			"bufferView":17,
			"componentType":5126,
			"count":32,
			"type":"VEC3"
		},
		{
			"bufferView":18,
			"componentType":5126,
			"count":32,
			"type":"VEC4"
		},
		{
			"bufferView":19,
			"componentType":5126,
			"count":32,
			"type":"VEC3"
		},
		{
			"bufferView":20,
			"componentType":5126,
			"count":32,
			"type":"VEC3"
		},
		{
			"bufferView":21,
			"componentType":5126,
			"count":32,
			"type":"VEC4"
		},
		{
			"bufferView":22,
			"componentType":5126,
			"count":32,
			"type":"VEC3"
		},
		{
			"bufferView":23,
			"componentType":5126,
			"count":32,
			"type":"VEC3"
		},
		{
			"bufferView":24,
			"componentType":5126,
			"count":32,
			"type":"VEC4"
		},
		{
			"bufferView":25,
			"componentType":5126,
			"count":32,
			"type":"VEC3"
		},
		{
			"bufferView":26,
			"componentType":5126,
			"count":32,
			"type":"VEC3"
		},
		{
			"bufferView":27,
			"componentType":5126,
			"count":32,
			"type":"VEC4"
		},
		{
			"bufferView":28,
			"componentType":5126,
			"count":32,
			"type":"VEC3"
		},
		{
			"bufferView":29,
			"componentType":5126,
			"count":32,
			"type":"VEC3"
		},
		{
			"bufferView":30,
			"componentType":5126,
			"count":32,
			"type":"VEC4"
		},
		{
			"bufferView":31,
			"componentType":5126,
			"count":32,
			"type":"VEC3"
		},
		{
			"bufferView":32,
			"componentType":5126,
			"count":32,
			"type":"VEC3"
		},
		{
			"bufferView":33,
			"componentType":5126,
			"count":32,
			"type":"VEC4"
		},
		{
			"bufferView":34,
			"componentType":5126,
			"count":32,
			"type":"VEC3"
		},
		{
			"bufferView":35,
			"componentType":5126,
			"count":32,
			"type":"VEC3"
		},
		{
			"bufferView":36,
			"componentType":5126,
			"count":32,
			"type":"VEC4"
		},
		{
			"bufferView":37,
			"componentType":5126,
			"count":32,
			"type":"VEC3"
		},
		{
			"bufferView":38,
			"componentType":5126,
			"count":32,
			"type":"VEC3"
		},
		{
			"bufferView":39,
			"componentType":5126,
			"count":32,
			"type":"VEC4"
		},
		{
			"bufferView":40,
			"componentType":5126,
			"count":32,
			"type":"VEC3"
		},
		{
			"bufferView":41,
			"componentType":5126,
			"count":32,
			"type":"VEC3"
		},
		{
			"bufferView":42,
			"componentType":5126,
			"count":32,
			"type":"VEC4"
		},
		{
			"bufferView":43,
			"componentType":5126,
			"count":32,
			"type":"VEC3"
		}
	],
	"bufferViews":[
		{
			"buffer":0,
			"byteLength":8652,
			"byteOffset":0,
			"target":34962
		},
		{
			"buffer":0,
			"byteLength":8652,
			"byteOffset":8652,
			"target":34962
		},
		{
			"buffer":0,
			"byteLength":2884,
			"byteOffset":17304,
			"target":34962
		},
		{
			"buffer":0,
			"byteLength":11536,
			"byteOffset":20188,
			"target":34962
		},
		{
			"buffer":0,
			"byteLength":2388,
			"byteOffset":31724,
			"target":34963
		},
		{
			"buffer":0,
			"byteLength":2160,
			"byteOffset":34112,
			"target":34962
		},
		{
			"buffer":0,
			"byteLength":2160,
			"byteOffset":36272,
			"target":34962
		},
		{
			"buffer":0,
			"byteLength":720,
			"byteOffset":38432,
			"target":34962
		},
		{
			"buffer":0,
			"byteLength":2880,
			"byteOffset":39152,
			"target":34962
		},
		{
			"buffer":0,
			"byteLength":576,
			"byteOffset":42032,
			"target":34963
		},
		{
			"buffer":0,
			"byteLength":4332,
			"byteOffset":42608,
			"target":34962
		},
		{
			"buffer":0,
			"byteLength":4332,
			"byteOffset":46940,
			"target":34962
		},
		{
			"buffer":0,
			"byteLength":1444,
			"byteOffset":51272,
			"target":34962
		},
		{
			"buffer":0,
			"byteLength":5776,
			"byteOffset":52716,
			"target":34962
		},
		{
			"buffer":0,
			"byteLength":1152,
			"byteOffset":58492,
			"target":34963
		},
		{
			"buffer":0,
			"byteLength":512,
			"byteOffset":59644
		},
		{
			"buffer":0,
			"byteLength":128,
			"byteOffset":60156
		},
		{
			"buffer":0,
			"byteLength":384,
			"byteOffset":60284
		},
		{
			"buffer":0,
			"byteLength":512,
			"byteOffset":60668
		},
		{
			"buffer":0,
			"byteLength":384,
			"byteOffset":61180
		},
		{
			"buffer":0,
			"byteLength":384,
			"byteOffset":61564
		},
		{
			"buffer":0,
			"byteLength":512,
			"byteOffset":61948
		},
		{
			"buffer":0,
			"byteLength":384,
			"byteOffset":62460
		},
		{
			"buffer":0,
			"byteLength":384,
			"byteOffset":62844
		},
		{
			"buffer":0,
			"byteLength":512,
			"byteOffset":63228
		},
		{
			"buffer":0,
			"byteLength":384,
			"byteOffset":63740
		},
		{
			"buffer":0,
			"byteLength":384,
			"byteOffset":64124
		},
		{
			"buffer":0,
			"byteLength":512,
			"byteOffset":64508
		},
		{
			"buffer":0,
			"byteLength":384,
			"byteOffset":65020
		},
		{
			"buffer":0,
			"byteLength":384,
			"byteOffset":65404
		},
		{
			"buffer":0,
			"byteLength":512,
			"byteOffset":65788
		},
		{
			"buffer":0,
			"byteLength":384,
			"byteOffset":66300
		},
		{
			"buffer":0,
			"byteLength":384,
			"byteOffset":66684
		},
		{
			"buffer":0,
			"byteLength":512,
			"byteOffset":67068
		},
		{
			"buffer":0,
			"byteLength":384,
			"byteOffset":67580
		},
		{
			"buffer":0,
			"byteLength":384,
			"byteOffset":67964
		},
		{
			"buffer":0,
			"byteLength":512,
			"byteOffset":68348
		},
		{
			"buffer":0,
			"byteLength":384,
			"byteOffset":68860
		},
		{
			"buffer":0,
			"byteLength":384,
			"byteOffset":69244
		},
		{
			"buffer":0,
			"byteLength":512,
			"byteOffset":69628
		},
		{
			"buffer":0,
			"byteLength":384,
			"byteOffset":70140
		},
		{
			"buffer":0,
			"byteLength":384,
			"byteOffset":70524
		},
		{
			"buffer":0,
			"byteLength":512,
			"byteOffset":70908
		},
		{
			"buffer":0,
			"byteLength":384,
			"byteOffset":71420
		}
	],
	"buffers":[
		{
			"byteLength":71804,
			"uri":"data:application/octet-stream;base64,"
		}
	]
}
