{
	"asset":{
		"generator":"Khronos glTF Blender I/O v3.5.30",
		"version":"2.0"
	},
	"extensionsUsed":[
		"KHR_materials_transmission",
		"KHR_materials_ior"
	],
	"scene":0,
	"scenes":[
		{
			"name":"Scene",
			"nodes":[
				0,
				1,
				2,
				3,
				4,
				5,
				6,
				7,
				8
			]
		}
	],
	"nodes":[
		{
			"mesh":0,
			"name":"Cube"
		},
		{
			"mesh":1,
			"name":"Plane"
		},
		{
			"mesh":2,
			"name":"Plane.001"
		},
		{
			"mesh":3,
			"name":"Plane.002"
		},
		{
			"mesh":4,
			"name":"Plane.003"
		},
		{
			"mesh":5,
			"name":"Plane.004"
		},
		{
			"mesh":6,
			"name":"Plane.005"
		},
		{
			"mesh":7,
			"name":"Sphere"
		},
		{
			"mesh":8,
			"name":"Sphere.001"
		}
	],
	"materials":[
		{
			"doubleSided":true,
			"extensions":{
				"KHR_materials_transmission":{
					"transmissionFactor":0.0820000022649765
				},
				"KHR_materials_ior":{
					"ior":1.4500000476837158
				}
			},
			"name":"Material.002",
			"pbrMetallicRoughness":{
				"metallicFactor":0,
				"roughnessFactor":0.2669999897480011
			}
		},
		{
			"doubleSided":true,
			"extensions":{
				"KHR_materials_transmission":{
					"transmissionFactor":0.0820000022649765
				},
				"KHR_materials_ior":{
					"ior":1.4500000476837158
				}
			},
			"name":"Material.001",
			"pbrMetallicRoughness":{
				"metallicFactor":0,
				"roughnessFactor":0.2669999897480011
			}
		},
		{
			"doubleSided":true,
			"name":"Material.003",
			"pbrMetallicRoughness":{
				"metallicFactor":0.4363636374473572,
				"roughnessFactor":0.20454546809196472
			}
		}
	],
	"meshes":[
		{
			"name":"Cube.001",
			"primitives":[
				{
					"attributes":{
						"POSITION":0,
						"TEXCOORD_0":1,
						"NORMAL":2
					},
					"indices":3,
					"material":0
				}
			]
		},
		{
			"name":"Plane",
			"primitives":[
				{
					"attributes":{
						"POSITION":4,
						"TEXCOORD_0":5,
						"NORMAL":6
					},
					"indices":7,
					"material":0
				}
			]
		},
		{
			"name":"Plane.001",
			"primitives":[
				{
					"attributes":{
						"POSITION":8,
						"TEXCOORD_0":9,
						"NORMAL":10
					},
					"indices":11,
					"material":1
				}
			]
		},
		{
			"name":"Plane.002",
			"primitives":[
				{
					"attributes":{
						"POSITION":12,
						"TEXCOORD_0":13,
						"NORMAL":14
					},
					"indices":15,
					"material":1
				}
			]
		},
		{
			"name":"Plane.003",
			"primitives":[
				{
					"attributes":{
						"POSITION":16,
						"TEXCOORD_0":17,
						"NORMAL":18
					},
					"indices":15,
					"material":1
				}
			]
		},
		{
			"name":"Plane.004",
			"primitives":[
				{
					"attributes":{
						"POSITION":19,
						"TEXCOORD_0":20,
						"NORMAL":21
					},
					"indices":11,
					"material":1
				}
			]
		},
		{
			"name":"Plane.005",
			"primitives":[
				{
					"attributes":{
						"POSITION":22,
						"TEXCOORD_0":23,
						"NORMAL":24
					},
					"indices":11,
					"material":1
				}
			]
		},
		{
			"name":"Sphere",
			"primitives":[
				{
					"attributes":{
						"POSITION":25,
						"TEXCOORD_0":26,
						"NORMAL":27
					},
					"indices":28,
					"material":2
				}
			]
		},
		{
			"name":"Sphere.001",
			"primitives":[
				{
					"attributes":{
						"POSITION":29,
						"TEXCOORD_0":30,
						"NORMAL":31
					},
					"indices":28,
					"material":1
				}
			]
		}
	],
	"accessors":[
		{
			"bufferView":0,
			"componentType":5126,
			"count":3356,
			"max":[
				0.5379149317741394,
				0.10324317216873169,
				2.242821216583252
			],
			"min":[
				-0.6215066909790039,
				-0.13667570054531097,
				-1.324995517730713
			],
			"type":"VEC3"
		},
		{
			"bufferView":1,
			"componentType":5126,
			"count":3356,
			"type":"VEC2"
		},
		{
			"bufferView":2,
			"componentType":5126,
			"count":3356,
			"type":"VEC3"
		},
		{
			"bufferView":3,
			"componentType":5123,
			"count":20088,
			"type":"SCALAR"
		},
		{
			"bufferView":4,
			"componentType":5126,
			"count":312,
			"max":[
				-0.11138680577278137,
				-0.0008553266525268555,
				1.344372034072876
			],
			"min":[
				-0.905650794506073,
				-0.02257723920047283,
				-0.38092702627182007
			],
			"type":"VEC3"
		},
		{
			"bufferView":5,
			"componentType":5126,
			"count":312,
			"type":"VEC2"
		},
		{
			"bufferView":6,
			"componentType":5126,
			"count":312,
			"type":"VEC3"
		},
		{
			"bufferView":7,
			"componentType":5123,
			"count":1860,
			"type":"SCALAR"
		},
		{
			"bufferView":8,
			"componentType":5126,
			"count":120,
			"max":[
				0.6796703934669495,
				-0.0008056331425905228,
				1.2966456413269043
			],
			"min":[
				0.245040163397789,
				-0.03227776288986206,
				0.26758015155792236
			],
			"type":"VEC3"
		},
		{
			"bufferView":9,
			"componentType":5126,
			"count":120,
			"type":"VEC2"
		},
		{
			"bufferView":10,
			"componentType":5126,
			"count":120,
			"type":"VEC3"
		},
		{
			"bufferView":11,
			"componentType":5123,
			"count":708,
			"type":"SCALAR"
		},
		{
			"bufferView":12,
			"componentType":5126,
			"count":96,
			"max":[
				0.7929661870002747,
				0.09991538524627686,
				0.14336057007312775
			],
			"min":[
				0.3096725642681122,
				-0.07798811793327332,
				-0.38975441455841064
			],
			"type":"VEC3"
		},
		{
			"bufferView":13,
			"componentType":5126,
			"count":96,
			"type":"VEC2"
		},
		{
			"bufferView":14,
			"componentType":5126,
			"count":96,
			"type":"VEC3"
		},
		{
			"bufferView":15,
			"componentType":5123,
			"count":564,
			"type":"SCALAR"
		},
		{
			"bufferView":16,
			"componentType":5126,
			"count":96,
			"max":[
				0.8070439100265503,
				0.01582670956850052,
				0.15164503455162048
			],
			"min":[
				0.3950483798980713,
				-0.1457006335258484,
				-0.39463403820991516
			],
			"type":"VEC3"
		},
		{
			"bufferView":17,
			"componentType":5126,
			"count":96,
			"type":"VEC2"
		},
		{
			"bufferView":18,
			"componentType":5126,
			"count":96,
			"type":"VEC3"
		},
		{
			"bufferView":19,
			"componentType":5126,
			"count":120,
			"max":[
				0.3990975320339203,
				0.25447529554367065,
				0.17998385429382324
			],
			"min":[
				-0.014923647046089172,
				0.03700369596481323,
				-0.48405641317367554
			],
			"type":"VEC3"
		},
		{
			"bufferView":20,
			"componentType":5126,
			"count":120,
			"type":"VEC2"
		},
		{
			"bufferView":21,
			"componentType":5126,
			"count":120,
			"type":"VEC3"
		},
		{
			"bufferView":22,
			"componentType":5126,
			"count":120,
			"max":[
				0.3967440128326416,
				-0.05825786292552948,
				0.16238903999328613
			],
			"min":[
				-0.016902927309274673,
				-0.3291438817977905,
				-0.4812333285808563
			],
			"type":"VEC3"
		},
		{
			"bufferView":23,
			"componentType":5126,
			"count":120,
			"type":"VEC2"
		},
		{
			"bufferView":24,
			"componentType":5126,
			"count":120,
			"type":"VEC3"
		},
		{
			"bufferView":25,
			"componentType":5126,
			"count":482,
			"max":[
				-0.06890018284320831,
				0.10682230442762375,
				-0.8775712251663208
			],
			"min":[
				-0.27054402232170105,
				-0.09486086666584015,
				-1.0792150497436523
			],
			"type":"VEC3"
		},
		{
			"bufferView":26,
			"componentType":5126,
			"count":482,
			"type":"VEC2"
		},
		{
			"bufferView":27,
			"componentType":5126,
			"count":482,
			"type":"VEC3"
		},
		{
			"bufferView":28,
			"componentType":5123,
			"count":2880,
			"type":"SCALAR"
		},
		{
			"bufferView":29,
			"componentType":5126,
			"count":482,
			"max":[
				-0.06890018284320831,
				0.05744500830769539,
				-0.8775712251663208
			],
			"min":[
				-0.27054402232170105,
				-0.1442381590604782,
				-1.0792150497436523
			],
			"type":"VEC3"
		},
		{
			"bufferView":30,
			"componentType":5126,
			"count":482,
			"type":"VEC2"
		},
		{
			"bufferView":31,
			"componentType":5126,
			"count":482,
			"type":"VEC3"
		}
	],
	"bufferViews":[
		{
			"buffer":0,
			"byteLength":40272,
			"byteOffset":0,
			"target":34962
		},
		{
			"buffer":0,
			"byteLength":26848,
			"byteOffset":40272,
			"target":34962
		},
		{
			"buffer":0,
			"byteLength":40272,
			"byteOffset":67120,
			"target":34962
		},
		{
			"buffer":0,
			"byteLength":40176,
			"byteOffset":107392,
			"target":34963
		},
		{
			"buffer":0,
			"byteLength":3744,
			"byteOffset":147568,
			"target":34962
		},
		{
			"buffer":0,
			"byteLength":2496,
			"byteOffset":151312,
			"target":34962
		},
		{
			"buffer":0,
			"byteLength":3744,
			"byteOffset":153808,
			"target":34962
		},
		{
			"buffer":0,
			"byteLength":3720,
			"byteOffset":157552,
			"target":34963
		},
		{
			"buffer":0,
			"byteLength":1440,
			"byteOffset":161272,
			"target":34962
		},
		{
			"buffer":0,
			"byteLength":960,
			"byteOffset":162712,
			"target":34962
		},
		{
			"buffer":0,
			"byteLength":1440,
			"byteOffset":163672,
			"target":34962
		},
		{
			"buffer":0,
			"byteLength":1416,
			"byteOffset":165112,
			"target":34963
		},
		{
			"buffer":0,
			"byteLength":1152,
			"byteOffset":166528,
			"target":34962
		},
		{
			"buffer":0,
			"byteLength":768,
			"byteOffset":167680,
			"target":34962
		},
		{
			"buffer":0,
			"byteLength":1152,
			"byteOffset":168448,
			"target":34962
		},
		{
			"buffer":0,
			"byteLength":1128,
			"byteOffset":169600,
			"target":34963
		},
		{
			"buffer":0,
			"byteLength":1152,
			"byteOffset":170728,
			"target":34962
		},
		{
			"buffer":0,
			"byteLength":768,
			"byteOffset":171880,
			"target":34962
		},
		{
			"buffer":0,
			"byteLength":1152,
			"byteOffset":172648,
			"target":34962
		},
		{
			"buffer":0,
			"byteLength":1440,
			"byteOffset":173800,
			"target":34962
		},
		{
			"buffer":0,
			"byteLength":960,
			"byteOffset":175240,
			"target":34962
		},
		{
			"buffer":0,
			"byteLength":1440,
			"byteOffset":176200,
			"target":34962
		},
		{
			"buffer":0,
			"byteLength":1440,
			"byteOffset":177640,
			"target":34962
		},
		{
			"buffer":0,
			"byteLength":960,
			"byteOffset":179080,
			"target":34962
		},
		{
			"buffer":0,
			"byteLength":1440,
			"byteOffset":180040,
			"target":34962
		},
		{
			"buffer":0,
			"byteLength":5784,
			"byteOffset":181480,
			"target":34962
		},
		{
			"buffer":0,
			"byteLength":3856,
			"byteOffset":187264,
			"target":34962
		},
		{
			"buffer":0,
			"byteLength":5784,
			"byteOffset":191120,
			"target":34962
		},
		{
			"buffer":0,
			"byteLength":5760,
			"byteOffset":196904,
			"target":34963
		},
		{
			"buffer":0,
			"byteLength":5784,
			"byteOffset":202664,
			"target":34962
		},
		{
			"buffer":0,
			"byteLength":3856,
			"byteOffset":208448,
			"target":34962
		},
		{
			"buffer":0,
			"byteLength":5784,
			"byteOffset":212304,
			"target":34962
		}
	],
	"buffers":[
		{
			"byteLength":218088,
			"uri":"data:application/octet-stream;base64,"
		}
	]
}
